#!OML:ASF E:\Steps\Project 1\Capture day 1\Session 2\Subject.ASF
:FULLY-SPECIFIED
:DEGREES
560
root 4.0229 17.9248 17.0678 -153.444 -1.55951 175.099
lowerback -26.0739 -2.03356 -5.8292
upperback 0.478101 -1.16687 0.0930224
thorax 15.3926 -1.09637 2.98864
lowerneck 0.74702 -0.525272 -0.132789
upperneck 25.2725 -4.24847 2.11877
head 7.7013 -2.91568 0.315823
rclavicle 5.06901e-015 0
rhumerus -44.8136 -15.0461 -76.1116
rradius 34.5164
rwrist -5.83841
rhand -8.33881 -56.834
rfingers 7.12502
rthumb 17.5828 633.941
lclavicle 5.06901e-015 0
lhumerus -32.7907 -1.30456 80.8779
lradius 27.9207
lwrist -1.12801
lhand -21.5749 -13.2636
lfingers 7.12502
lthumb 4.81928 16.6616
rfemur -30.9139 8.97362 15.19
rtibia 17.6456
rfoot -20.1821 -3.65585
rtoes -18.9821
lfemur -32.3589 -15.8581 -22.6254
ltibia 18.0967
lfoot -6.88582 -0.667195
ltoes -26.0664
561
root 4.03717 17.9156 17.0421 -153.406 -1.54995 175.181
lowerback -26.3311 -2.07258 -5.92311
upperback 0.82635 -1.17891 0.178078
thorax 15.2 -1.09723 2.98248
lowerneck 0.560944 -0.552244 -0.191982
upperneck 25.4848 -4.3445 2.20864
head 7.81061 -2.96411 0.342041
rclavicle 3.27995e-015 8.74653e-015
rhumerus -44.8251 -15.2226 -76.0561
rradius 34.4349
rwrist -5.61679
rhand -8.45905 -56.9925
rfingers 7.12502
rthumb 17.4671 633.772
lclavicle 3.27995e-015 8.74653e-015
lhumerus -32.7905 -1.09521 80.8575
lradius 27.9802
lwrist -1.2521
lhand -21.8463 -12.9588
lfingers 7.12502
lthumb 4.5572 16.9722
rfemur -30.8435 8.89705 15.4145
rtibia 17.6455
rfoot -20.2848 -3.3347
rtoes -17.5917
lfemur -32.1077 -15.6375 -22.5772
ltibia 17.8193
lfoot -7.09132 -0.356523
ltoes -26.0176
562
root 4.05713 17.9176 17.0363 -153.395 -1.46284 175.216
lowerback -26.3178 -2.12536 -6.16509
upperback 0.786045 -1.18455 0.208186
thorax 15.1503 -1.11943 3.14562
lowerneck 0.579692 -0.488359 -0.278817
upperneck 25.5268 -4.2885 2.31879
head 7.82437 -2.94104 0.396145
rclavicle 8.24956e-015 -7.95139e-016
rhumerus -44.8521 -15.3812 -75.9584
rradius 34.3729
rwrist -5.449
rhand -8.78921 -57.6938
rfingers 7.12502
rthumb 17.1493 633.043
lclavicle 8.24956e-015 -7.95139e-016
lhumerus -32.7353 -0.868385 80.8294
lradius 27.9354
lwrist -1.25692
lhand -22.1077 -12.8198
lfingers 7.12502
lthumb 4.30472 17.1164
rfemur -31.0665 9.13964 15.467
rtibia 18.0087
rfoot -20.4421 -3.37995
rtoes -17.1212
lfemur -31.9901 -15.2871 -22.4927
ltibia 17.5966
lfoot -7.23052 -0.515524
ltoes -23.0209
563
root 4.07186 17.9219 17.0269 -153.461 -1.52201 175.197
lowerback -26.2896 -2.18574 -6.29279
upperback 0.786357 -1.22073 0.161325
thorax 15.1404 -1.14356 3.15076
lowerneck 0.630387 -0.398881 -0.302845
upperneck 25.5653 -4.19528 2.40439
head 7.82902 -2.89746 0.434476
rclavicle -8.00108e-015 -2.5842e-015
rhumerus -44.8359 -15.5996 -75.9417
rradius 34.2498
rwrist -5.35697
rhand -8.97728 -57.8181
rfingers 7.12502
rthumb 16.9683 632.903
lclavicle -8.00108e-015 -2.5842e-015
lhumerus -32.6683 -0.799242 80.7722
lradius 27.8362
lwrist -1.22411
lhand -22.386 -13.132
lfingers 7.12502
lthumb 4.03601 16.8095
rfemur -31.0411 9.13319 15.5307
rtibia 18.1609
rfoot -20.5693 -3.36575
rtoes -17.2472
lfemur -31.6917 -14.9164 -22.6073
ltibia 17.3033
lfoot -7.28449 -0.810828
ltoes -23.007
